<svg width="1611" height="401" viewBox="0 0 1611 401" fill="none" xmlns="http://www.w3.org/2000/svg">
<path d="M1609.32 254.152C873.887 -161.335 232.736 14.9292 1 230.928V346.137H1609.32V254.152Z" fill="white" fill-opacity="0.1"/>
<path d="M92.0589 252.171C27.68 239.87 -0.988836 332.398 1.10688 381.338H1611V318.047V252.171C1602.28 224.288 1581.38 240.553 1574.95 252.171C1564.9 204.195 1528.01 210.654 1510.83 219.88C1488.36 90.7132 1410.37 123.688 1374.19 156.322C1354.07 119.417 1325.85 140.945 1314.25 156.322C1286.42 88.6629 1223.02 108.995 1194.8 127.618C1165.63 38.6365 1099.1 61.1553 1069.48 83.5373C977.94 -11.5949 879.332 43.8989 841.47 83.5373C779.774 62.2146 755.129 116.683 750.518 146.583C730.4 112.548 709.723 132.402 701.899 146.583C660.656 49.8105 569.313 73.1151 528.796 96.864C473.471 38.6365 402.078 81.487 373.298 110.191C307.913 50.323 270.61 109.507 260.132 146.583C228.613 151.093 236.66 185.709 244.624 202.452C157.779 142.585 106.729 210.654 92.0589 252.171Z" fill="white" fill-opacity="0.25"/>
<path d="M92.0413 294.795C27.6748 284.738 -0.988454 360.385 1.10685 400.396H1610.69V348.652V294.795C1601.97 271.998 1581.07 285.296 1574.65 294.795C1564.59 255.572 1527.72 260.852 1510.53 268.395C1488.07 162.793 1410.1 189.752 1373.92 216.432C1353.81 186.26 1325.59 203.86 1314 216.432C1286.17 161.117 1222.78 177.739 1194.57 192.965C1165.4 120.218 1098.88 138.628 1069.27 156.927C977.751 79.1504 879.162 124.52 841.307 156.927C779.623 139.494 754.982 184.025 750.373 208.47C730.258 180.645 709.585 196.876 701.763 208.47C660.528 129.353 569.202 148.406 528.694 167.822C473.379 120.218 402.001 155.25 373.226 178.717C307.853 129.772 270.558 178.159 260.081 208.47C228.569 212.158 236.614 240.458 244.576 254.147C157.749 205.201 106.708 260.852 92.0413 294.795Z" fill="white"/>
<path d="M752.78 36.0385C550.965 44.4196 182.306 28.3559 22.6469 2.51434C3.23081 10.7557 -20.7669 28.9985 38.5709 36.0385C112.743 44.8387 68.0484 63.277 198.793 52.8007C329.537 42.3243 409.995 74.1723 533.616 52.8007C657.236 31.429 603.179 83.8105 806 69.5628C968.257 58.1645 1059.39 25.4226 1074.19 2.51434C1052.4 10.197 954.596 27.6575 752.78 36.0385Z" fill="white" fill-opacity="0.28"/>
<path d="M1 130.744C84.0931 121.5 291.944 82.4086 458.605 0" stroke="#8D8D8D" stroke-width="1.5"/>
<path d="M57.0195 123.578C44.9043 132.838 24.4412 132.187 18.8295 130.064L47.5845 174.238L57.0195 123.578Z" fill="#FF0B0B"/>
<path d="M119.72 110.63C108.105 120.51 87.6358 120.929 81.9208 119.102L112.945 161.714L119.72 110.63Z" fill="#FF710B"/>
<path d="M183.319 98.8964C171.894 108.995 151.436 109.801 145.687 108.082L177.512 150.1L183.319 98.8964Z" fill="#FFF960"/>
<path d="M247.65 81.2962C236.568 91.7713 216.149 93.2614 210.346 91.7361L243.559 132.665L247.65 81.2962Z" fill="#06FF20"/>
<path d="M306.915 62.8578C296.182 73.6897 275.822 75.8468 269.973 74.512L304.506 114.333L306.915 62.8578Z" fill="white"/>
<path d="M366.626 40.229C356.658 51.7691 336.494 55.3126 330.567 54.3808L367.741 91.7485L366.626 40.229Z" fill="#2963FA"/>
<path d="M429.606 15.0859C419.502 26.5072 399.297 29.8118 393.382 28.8099L430.111 66.615L429.606 15.0859Z" fill="#B10BFF"/>
<path d="M1610.16 98.8964C1474.72 91.9037 1135.91 62.3347 864.248 0" stroke="#8D8D8D" stroke-width="1.5"/>
<path d="M1548.14 94.0336C1561.18 102.081 1581.63 99.4556 1587.06 96.8001L1562.46 143.549L1548.14 94.0336Z" fill="#FF0B0B"/>
<path d="M1230.62 64.5341C1243.14 73.3503 1263.72 71.9591 1269.29 69.6341L1241.9 114.823L1230.62 64.5341Z" fill="#07EEFD"/>
<path d="M1147.23 53.1751C1159.57 62.2482 1180.17 61.2826 1185.79 59.0733L1157.47 103.686L1147.23 53.1751Z" fill="#FF710B"/>
<path d="M1384.65 79.62C1397.35 88.1742 1417.89 86.3554 1423.42 83.915L1396.96 129.665L1384.65 79.62Z" fill="#FFF506"/>
<path d="M902.44 10.114C914.187 19.929 934.807 20.2324 940.555 18.3731L909.511 61.1604L902.44 10.114Z" fill="#06FF20"/>
<path d="M1059.23 38.5528C1071.52 47.668 1092.12 46.7704 1097.75 44.5796L1069.23 89.1042L1059.23 38.5528Z" fill="white"/>
<path d="M976.536 23.4669C988.296 33.2493 1008.91 33.4928 1014.66 31.6165L983.682 74.5008L976.536 23.4669Z" fill="#2963FA"/>
<path d="M1306.08 72.9151C1318.59 81.7179 1339.17 80.2994 1344.74 77.9664L1317.33 123.205L1306.08 72.9151Z" fill="#B10BFF"/>
<path d="M1466.48 88.001C1478.78 97.0915 1499.38 96.1504 1505.01 93.9473L1476.55 138.538L1466.48 88.001Z" fill="#33E906"/>
<circle cx="190.445" cy="212.041" r="58.6674" fill="#DE0808"/>
<path d="M248.693 221.26C253.051 192.429 237.797 174.326 223.55 163.85C199.032 145.822 140.996 148.345 133.453 199.05C127.419 239.614 151.333 259.254 164.044 264.003C190.445 261.768 244.335 250.091 248.693 221.26Z" fill="white" fill-opacity="0.2"/>
<path d="M223.131 175.164C221.035 168.459 217.264 159.659 205.949 155.887C182.482 148.065 151.892 159.659 138.063 185.64C124.234 211.621 135.968 240.536 146.025 249.336C172.425 247.101 231.828 202.995 223.131 175.164Z" fill="white" fill-opacity="0.25"/>
<path d="M225.645 167.202C229.668 169.549 234.026 175.443 235.702 178.097C236.959 179.959 235.702 186.059 235.702 183.126C235.702 180.779 225.086 169.018 219.778 163.43C220.058 163.71 221.622 164.855 225.645 167.202Z" fill="white"/>
<path d="M144.349 182.707C139.991 186.395 136.387 199.888 135.13 206.174C137.812 199.804 149.098 191.786 154.406 188.574L144.349 182.707Z" fill="white"/>
<path d="M155.244 171.812C151.221 174.494 147.142 179.634 145.606 181.869L149.377 183.545C151.612 181.589 156.082 177.427 156.082 176.421C156.082 175.415 155.523 172.929 155.244 171.812Z" fill="white"/>
<path d="M156.082 178.516L150.634 184.802C151.305 184.802 153.987 186.758 155.244 187.736C155.523 187.596 156.25 187.149 156.92 186.478C157.591 185.808 156.641 180.891 156.082 178.516Z" fill="white"/>
<path d="M190.025 273.222L192.54 270.708L195.054 269.87L197.987 273.222H190.025Z" fill="#DE0808"/>
<path d="M192.54 270.708H195.892C197.01 272.943 198.574 277.999 195.892 280.346C192.54 283.28 191.702 284.956 193.797 287.889C195.892 290.822 203.854 296.689 200.921 303.813C197.987 310.937 189.187 311.775 187.93 317.642C186.673 323.509 187.511 327.699 190.025 331.89C192.54 336.08 197.568 342.785 197.987 346.137" stroke="#8D8D8D"/>
<circle cx="607.821" cy="121.525" r="58.6674" fill="#07B719"/>
<path d="M666.069 130.744C670.427 101.914 655.174 83.8105 640.926 73.3342C616.408 55.3062 558.373 57.8293 550.83 108.535C544.795 149.099 568.709 168.739 581.421 173.488C607.821 171.253 661.711 159.575 666.069 130.744Z" fill="white" fill-opacity="0.2"/>
<path d="M640.507 84.6486C638.412 77.9437 634.64 69.1436 623.326 65.3721C599.859 57.5497 569.268 69.1435 555.439 95.1248C541.61 121.106 553.344 150.021 563.401 158.821C589.802 156.586 649.204 112.48 640.507 84.6486Z" fill="white" fill-opacity="0.25"/>
<path d="M643.021 76.6866C647.044 79.0333 651.402 84.928 653.079 87.582C654.336 89.4441 653.079 95.544 653.079 92.6106C653.079 90.2639 642.463 78.5025 637.155 72.9152C637.434 73.1945 638.998 74.3399 643.021 76.6866Z" fill="white"/>
<path d="M561.725 92.1916C557.367 95.8793 553.763 109.373 552.506 115.659C555.188 109.289 566.474 101.271 571.782 98.0583L561.725 92.1916Z" fill="white"/>
<path d="M572.62 81.2962C568.598 83.9781 564.519 89.1185 562.982 91.3535L566.754 93.0297C568.989 91.0741 573.459 86.9115 573.459 85.9058C573.459 84.9001 572.9 82.4137 572.62 81.2962Z" fill="white"/>
<path d="M573.459 88.001L568.011 94.2868C568.681 94.2868 571.363 96.2424 572.62 97.2202C572.9 97.0805 573.626 96.6335 574.297 95.963C574.967 95.2926 574.017 90.3757 573.459 88.001Z" fill="white"/>
<path d="M607.402 182.707L609.916 180.193L612.43 179.354L615.364 182.707H607.402Z" fill="#DE0808"/>
<path d="M609.916 180.193H613.269C614.386 182.428 615.95 187.484 613.269 189.831C609.916 192.764 609.078 194.44 611.173 197.374C613.268 200.307 621.23 206.174 618.297 213.298C615.364 220.422 606.564 221.26 605.307 227.127C604.049 232.993 604.887 237.184 607.402 241.374C609.916 245.565 614.945 252.27 615.364 255.622" stroke="#8D8D8D"/>
<circle r="58.6674" transform="matrix(-1 0 0 1 1115.18 170.973)" fill="#F5EC0C"/>
<path d="M1056.93 180.193C1052.57 151.362 1067.83 133.259 1082.08 122.782C1106.59 104.754 1164.63 107.277 1172.17 157.983C1178.21 198.547 1154.29 218.187 1141.58 222.936C1115.18 220.701 1061.29 209.023 1056.93 180.193Z" fill="white" fill-opacity="0.2"/>
<path d="M1082.49 134.097C1084.59 127.392 1088.36 118.592 1099.68 114.82C1123.14 106.998 1153.73 118.592 1167.56 144.573C1181.39 170.554 1169.66 199.469 1159.6 208.269C1133.2 206.034 1073.8 161.928 1082.49 134.097Z" fill="white" fill-opacity="0.25"/>
<path d="M1079.98 126.135C1075.96 128.482 1071.6 134.376 1069.92 137.03C1068.67 138.892 1069.92 144.992 1069.92 142.059C1069.92 139.712 1080.54 127.951 1085.85 122.363C1085.57 122.643 1084 123.788 1079.98 126.135Z" fill="white"/>
<path d="M1161.28 141.64C1165.63 145.327 1169.24 158.821 1170.5 165.107C1167.81 158.737 1156.53 150.719 1151.22 147.507L1161.28 141.64Z" fill="white"/>
<path d="M1150.38 130.744C1154.4 133.426 1158.48 138.567 1160.02 140.802L1156.25 142.478C1154.01 140.522 1149.54 136.36 1149.54 135.354C1149.54 134.348 1150.1 131.862 1150.38 130.744Z" fill="white"/>
<path d="M1149.54 137.449L1154.99 143.735C1154.32 143.735 1151.64 145.691 1150.38 146.668C1150.1 146.529 1149.37 146.082 1148.7 145.411C1148.03 144.741 1148.98 139.824 1149.54 137.449Z" fill="white"/>
<path d="M1115.6 232.155L1113.08 229.641L1110.57 228.803L1107.64 232.155H1115.6Z" fill="#DE0808"/>
<path d="M1113.09 229.641H1109.73C1108.62 231.876 1107.05 236.932 1109.73 239.279C1113.08 242.212 1113.92 243.889 1111.83 246.822C1109.73 249.755 1101.77 255.622 1104.7 262.746C1107.64 269.87 1116.44 270.708 1117.69 276.575C1118.95 282.441 1118.11 286.632 1115.6 290.822C1113.09 295.013 1108.06 301.718 1107.64 305.07" stroke="#8D8D8D"/>
<circle r="58.6674" transform="matrix(-1 0 0 1 1509.93 211.202)" fill="#B10BFF"/>
<path d="M1451.68 220.422C1447.32 191.591 1462.57 173.488 1476.82 163.011C1501.34 144.983 1559.38 147.507 1566.92 198.212C1572.95 238.776 1549.04 258.416 1536.33 263.165C1509.93 260.93 1456.04 249.253 1451.68 220.422Z" fill="white" fill-opacity="0.2"/>
<path d="M1477.24 174.326C1479.34 167.621 1483.11 158.821 1494.42 155.049C1517.89 147.227 1548.48 158.821 1562.31 184.802C1576.14 210.783 1564.4 239.698 1554.35 248.498C1527.95 246.263 1468.54 202.157 1477.24 174.326Z" fill="white" fill-opacity="0.25"/>
<path d="M1474.73 166.364C1470.7 168.711 1466.35 174.605 1464.67 177.259C1463.41 179.121 1464.67 185.221 1464.67 182.288C1464.67 179.941 1475.29 168.18 1480.59 162.592C1480.31 162.872 1478.75 164.017 1474.73 166.364Z" fill="white"/>
<path d="M1556.02 181.869C1560.38 185.556 1563.99 199.05 1565.24 205.336C1562.56 198.966 1551.27 190.948 1545.97 187.736L1556.02 181.869Z" fill="white"/>
<path d="M1545.13 170.973C1549.15 173.655 1553.23 178.796 1554.77 181.031L1550.99 182.707C1548.76 180.751 1544.29 176.589 1544.29 175.583C1544.29 174.577 1544.85 172.091 1545.13 170.973Z" fill="white"/>
<path d="M1544.29 177.678L1549.74 183.964C1549.07 183.964 1546.39 185.92 1545.13 186.897C1544.85 186.758 1544.12 186.311 1543.45 185.64C1542.78 184.97 1543.73 180.053 1544.29 177.678Z" fill="white"/>
<path d="M1510.35 272.384L1507.83 269.87L1505.32 269.032L1502.38 272.384H1510.35Z" fill="#DE0808"/>
<path d="M1507.83 269.87H1504.48C1503.36 272.105 1501.8 277.161 1504.48 279.508C1507.83 282.441 1508.67 284.118 1506.58 287.051C1504.48 289.984 1496.52 295.851 1499.45 302.975C1502.38 310.099 1511.18 310.937 1512.44 316.804C1513.7 322.671 1512.86 326.861 1510.35 331.052C1507.83 335.242 1502.8 341.947 1502.38 345.299" stroke="#8D8D8D"/>
</svg>
