<svg width="1920" height="483" viewBox="0 0 1920 483" fill="none" xmlns="http://www.w3.org/2000/svg">
<rect x="-1" width="1920" height="478" fill="#29AEFA"/>
<path d="M1918 306.464C1040.5 -194.592 275.5 17.9736 -1 278.457V417.394H1918V306.464Z" fill="white" fill-opacity="0.1"/>
<path d="M107.649 304.076C30.8337 289.241 -3.37302 400.825 -0.872482 459.844H1920V383.518V304.076C1909.6 270.449 1884.66 290.065 1876.99 304.076C1864.99 246.219 1820.98 254.007 1800.48 265.134C1773.67 109.365 1680.62 149.131 1637.45 188.486C1613.44 143.98 1579.77 169.942 1565.93 188.486C1532.72 106.893 1457.08 131.412 1423.4 153.87C1388.6 46.5634 1309.21 73.7199 1273.87 100.711C1164.65 -14.0131 1047 52.9096 1001.82 100.711C928.208 74.9974 898.802 140.684 893.301 176.741C869.296 135.698 844.625 159.64 835.29 176.741C786.08 60.0386 677.092 88.1429 628.75 116.783C562.737 46.5635 477.554 98.239 443.214 132.854C365.199 60.6568 320.69 132.03 308.188 176.741C270.58 182.181 280.182 223.925 289.684 244.117C186.064 171.92 125.152 254.007 107.649 304.076Z" fill="white" fill-opacity="0.25"/>
<path d="M107.627 355.477C30.8275 343.349 -3.37256 434.576 -0.872507 482.827H1919.63V420.426V355.477C1909.23 327.986 1884.29 344.023 1876.63 355.477C1864.63 308.176 1820.63 314.544 1800.13 323.64C1773.33 196.29 1680.29 228.801 1637.13 260.976C1613.13 224.59 1579.46 245.815 1565.63 260.976C1532.43 194.269 1456.79 214.315 1423.13 232.676C1388.33 144.946 1308.96 167.148 1273.63 189.215C1164.43 95.421 1046.79 150.134 1001.63 189.215C928.028 168.192 898.628 221.895 893.128 251.374C869.128 217.818 844.461 237.392 835.128 251.374C785.927 155.963 676.961 178.94 628.628 202.354C562.628 144.946 477.461 187.194 443.128 215.494C365.128 156.468 320.628 214.82 308.128 251.374C270.528 255.821 280.128 289.95 289.628 306.458C186.028 247.432 125.127 314.544 107.627 355.477Z" fill="white"/>
<path d="M896 43.43C655.2 53.5371 215.328 34.1651 24.8284 3.00146C1.66173 12.9401 -26.9716 34.94 43.8284 43.43C132.328 54.0424 79 76.2781 235 63.6442C391 51.0103 487 89.4174 634.5 63.6442C782 37.871 717.5 101.041 959.5 83.8585C1153.1 70.1128 1261.83 30.6276 1279.5 3.00146C1253.5 12.2663 1136.8 33.3228 896 43.43Z" fill="white" fill-opacity="0.28"/>
</svg>
