<?xml version="1.0" encoding="UTF-8" standalone="no"?>
<svg
   xmlns:svg="http://www.w3.org/2000/svg"
   xmlns="http://www.w3.org/2000/svg"
   xmlns:xlink="http://www.w3.org/1999/xlink"
   width="147.85477mm"
   height="108.74973mm"
   viewBox="0 0 147.85477 55.202906"
   version="1.1"
   id="svg1059">
  <defs
     id="defs1053">
    <linearGradient
       id="lgrad-9"
       x1="4050.0037"
       y1="4227.6001"
       x2="6211.5498"
       y2="4227.6001"
       gradientTransform="scale(1.1278598,0.88663499)"
       gradientUnits="userSpaceOnUse">
      <stop
         offset="0%"
         style="stop-color:rgb(214,58,157);stop-opacity:1.00"
         id="stop2-5" />
      <stop
         offset="49%"
         style="stop-color:rgb(199,101,178);stop-opacity:1.00"
         id="stop4-3" />
      <stop
         offset="52%"
         style="stop-color:rgb(165,173,255);stop-opacity:1.00"
         id="stop6-1" />
      <stop
         offset="55%"
         style="stop-color:rgb(86,130,193);stop-opacity:1.00"
         id="stop8-1" />
      <stop
         offset="100%"
         style="stop-color:rgb(31,110,179);stop-opacity:1.00"
         id="stop10-8" />
    </linearGradient>
    <path
            style="clip-rule:evenodd;fill:none;fill-rule:evenodd;stroke:none;stroke-width:0.321974px;stroke-linecap:butt;stroke-linejoin:miter;stroke-opacity:1;image-rendering:optimizeQuality;shape-rendering:geometricPrecision;text-rendering:geometricPrecision"
            d="m 49.421356,94.665784 c 0,0 -3.265972,26.775376 54.089384,31.720396 16.99073,-1.16588 57.5673,-4.91396 58.8274,-31.720396 v 0"
            id="path1051-4"
             />
    <path
            style="clip-rule:evenodd;fill:none;fill-rule:evenodd;stroke:none;stroke-width:0.264584px;stroke-linecap:butt;stroke-linejoin:miter;stroke-opacity:1;image-rendering:optimizeQuality;shape-rendering:geometricPrecision;text-rendering:geometricPrecision"
            d="m 59.03866,83.075194 c 0,0 -2.63961,22.371526 43.71588,26.503216 13.73217,-0.97412 46.52679,-4.10574 47.54522,-26.503216 v 0"
            id="path1051"
             />
  </defs>

  <g
     id="layer1"
     transform="translate(-31.285581,-51.234118)">
    <ellipse
       class="fil1 str1 ellipse_big"
       cx="104.74213"
       cy="79.056557"
       rx="72.662338"
       ry="53.109821"
       id="ellipse42"
       style="clip-rule:evenodd;fill:#ffffff;fill-rule:evenodd;stroke:#000000;stroke-width:0.53008;stroke-miterlimit:22.9256;stroke-dasharray:none;stroke-opacity:1;image-rendering:optimizeQuality;shape-rendering:geometricPrecision;text-rendering:geometricPrecision" />
    <g
       id="_1853406436480-3"
       style="clip-rule:evenodd;fill-rule:evenodd;image-rendering:optimizeQuality;shape-rendering:geometricPrecision;text-rendering:geometricPrecision"
       transform="matrix(0.02029479,0,0,0.02254543,-13.88848,-15.813786)">
      <path
         fill="url(#lgrad)"
         d="m 6082.66,2970.67 c 0,0 -30.77,14.36 -4.1,59.49 26.67,45.13 99.81,207.26 161.45,250.41 61.64,43.15 47.28,32.68 65.23,40.89 17.95,8.2 56.41,9.23 30.26,-21.54 -26.15,-30.77 -73.34,-63.08 -70.26,-117.96 3.08,-54.88 25.13,-57.44 25.13,-57.44 0,0 1.54,-28.21 8.72,-41.54 7.18,-13.33 21.54,-10.77 29.75,-5.64 8.2,5.13 28.72,17.95 35.9,-29.23 7.18,-47.19 45.13,-96.42 50.78,-106.68 5.64,-10.26 40,-60 43.08,-62.57 3.07,-2.56 -11.28,-3.07 -43.08,6.67 -31.8,9.74 -42.06,15.9 -48.21,18.46 -6.16,2.56 89.75,-152.83 311.3,-104.62 221.56,48.21 290.83,181.21 311.37,246.96 7.75,24.78 12.19,54.08 14.72,80.98 v 0.06 l 0.02,0.2 c 0.44,5.49 7.07,94.32 -19.76,155.93 -27.69,63.59 -40.69,72.83 -40.69,72.83 0,0 -54.36,88.21 -160.01,105.65 -105.65,17.44 -273.86,-31.8 -273.86,-31.8 0,0 -57.44,-21.54 -36.41,27.69 21.03,49.23 63.08,110.78 86.67,173.35 23.59,62.57 52.31,177.44 52.31,177.44 0,0 8.72,21.03 22.06,28.72 13.33,7.69 38.46,23.59 53.85,33.33 15.39,9.74 32.82,25.13 33.85,30.26 1.03,5.13 8.72,40.52 -27.69,20.51 -36.41,-20 -12.31,-7.18 -12.31,-7.18 0,0 -23.59,-16.41 -8.2,16.41 15.39,32.82 11.28,27.69 11.28,27.69 0,0 4.61,15.39 -7.18,21.54 -11.8,6.15 -20.51,0 -27.18,-9.74 -6.67,-9.75 -17.44,-26.16 -17.44,-26.16 0,0 -9.74,-2.56 -11.8,9.23 -2.05,11.8 -5.64,30.77 -5.64,30.77 0,0 -12.82,18.97 -26.15,16.92 -13.33,-2.05 -21.54,-16.41 -21.54,-27.18 0,-10.77 2.56,-38.46 -1.03,-46.67 -3.59,-8.2 -19.49,-15.9 -29.23,-11.28 -9.74,4.62 -24.62,13.85 -27.69,13.85 -3.08,0 -33.85,-8.72 -15.39,-34.36 18.46,-25.64 20.51,-19.49 28.2,-29.75 7.69,-10.26 28.72,-19.49 11.8,-54.87 -16.93,-35.39 -81.55,-145.65 -81.55,-145.65 0,0 -43.08,-58.46 -44.1,21.54 -1.03,80 -3.08,80 10.26,155.91 10.2,58.09 26.85,108.5 36.88,185.16 l -20.78,187.83 c 0,0 -2.75,15.22 -23.26,9.16 -13.39,-5.84 -20.54,-9.3 -20.54,-9.3 0,0 -32.82,-9.74 -17.44,41.54 15.39,51.29 33.33,81.03 43.59,108.21 10.26,27.18 28.21,41.03 28.21,41.03 0,0 24.61,27.18 -10.26,66.16 -34.87,38.98 -41.03,36.93 -41.03,36.93 0,0 7.18,13.33 -4.1,33.85 -11.28,20.52 -74.88,66.67 -74.88,66.67 l -6.15,14.36 -5.43,7.24 c 163.85,21.27 298.9,46.14 334.85,56.87 68.72,20.52 -0.07,18.31 -0.07,18.31 0,0 -386.52,-57.02 -799.27,-49.31 -244.51,-4.11 -624.85,34.59 -727.42,43.83 -102.57,9.23 -6.1,-17.12 -6.1,-17.12 0,0 124.64,-25.64 286.82,-49.3 l -7.89,-10.51 -6.15,-14.36 c 0,0 -63.59,-46.16 -74.88,-66.67 -11.28,-20.51 -4.1,-33.85 -4.1,-33.85 0,0 -6.15,2.05 -41.03,-36.93 -34.87,-38.98 -10.26,-66.16 -10.26,-66.16 0,0 17.95,-13.85 28.21,-41.03 10.26,-27.18 28.2,-56.93 43.59,-108.21 15.39,-51.28 -17.44,-41.54 -17.44,-41.54 0,0 -15.9,7.69 -44.62,19.49 -28.72,11.8 -33.85,-26.15 -33.85,-26.15 0,0 0.76,23.19 6.92,-102.15 6.17,-125.33 30.52,-188.13 43.85,-264.03 13.33,-75.91 11.28,-75.91 10.26,-155.91 -1.02,-80 -44.1,-21.54 -44.1,-21.54 0,0 -64.62,110.26 -81.54,145.65 -16.93,35.39 4.1,44.62 11.8,54.87 7.69,10.26 9.74,4.11 28.2,29.75 18.46,25.64 -12.31,34.36 -15.39,34.36 -3.07,0 -17.95,-9.23 -27.69,-13.85 -9.74,-4.61 -25.64,3.08 -29.23,11.28 -3.59,8.21 -1.03,35.9 -1.03,46.67 0,10.77 -8.2,25.13 -21.54,27.18 -13.33,2.05 -26.15,-16.92 -26.15,-16.92 0,0 -3.59,-18.98 -5.64,-30.77 -2.05,-11.8 -11.8,-9.23 -11.8,-9.23 0,0 -10.77,16.41 -17.44,26.16 -6.67,9.74 -15.39,15.9 -27.18,9.74 -11.8,-6.16 -7.18,-21.54 -7.18,-21.54 0,0 -4.1,5.13 11.28,-27.69 15.39,-32.82 -8.2,-16.41 -8.2,-16.41 0,0 24.1,-12.82 -12.31,7.18 -36.41,20 -28.72,-15.39 -27.69,-20.51 1.02,-5.13 18.46,-20.52 33.85,-30.26 15.39,-9.74 40.52,-25.64 53.85,-33.33 13.33,-7.69 22.06,-28.72 22.06,-28.72 0,0 28.72,-114.88 52.31,-177.44 23.59,-62.57 65.64,-124.11 86.67,-173.35 21.03,-49.23 -36.41,-27.69 -36.41,-27.69 0,0 -168.22,49.23 -273.87,31.8 C 4806.36,3444.56 4752,3356.35 4752,3356.35 c 0,0 -15.39,-7.18 -49.24,-5.13 -33.85,2.05 -36.93,11.28 -33.85,27.69 3.07,16.41 75.9,101.55 75.9,101.55 0,0 120.01,110.78 129.24,209.24 9.23,98.47 -67.7,163.09 -67.7,163.09 0,0 5.13,-22.57 5.13,-40 0,-17.44 -12.31,-19.49 -34.87,-53.33 -22.56,-33.85 -76.49,-113.13 -171.01,-230.25 -94.52,-117.12 18.18,-250.81 18.18,-250.81 0,0 -2.05,-20.51 6.16,-40 8.2,-19.49 58.46,-28.72 58.46,-28.72 0,0 -2.67,-97.57 17.88,-163.32 20.54,-65.75 89.81,-198.76 311.37,-246.96 221.55,-48.21 317.46,107.19 311.3,104.62 -6.15,-2.56 -16.41,-8.72 -48.2,-18.46 -31.8,-9.74 -46.16,-9.23 -43.08,-6.67 3.08,2.56 37.44,52.31 43.08,62.57 5.64,10.26 43.59,59.49 50.77,106.68 7.18,47.18 27.69,34.36 35.9,29.23 8.2,-5.13 22.57,-7.69 29.75,5.64 7.18,13.33 8.72,41.54 8.72,41.54 0,0 22.05,2.56 25.13,57.44 3.08,54.87 -44.11,87.19 -70.26,117.96 -26.16,30.77 12.31,29.74 30.26,21.54 17.95,-8.21 3.59,2.26 65.23,-40.89 61.64,-43.15 134.78,-205.28 161.45,-250.41 26.67,-45.13 -4.1,-59.49 -4.1,-59.49 0,0 -22.56,-16.93 -41.03,-38.98 -18.46,-22.05 -12.82,-54.11 -12.56,-56.15 0.26,-2.04 14.78,-2.29 18.6,-3.06 3.82,-0.76 7.14,-7.65 7.14,-9.94 0,-2.3 -0.77,-4.59 -5.61,-16.05 -4.84,-11.47 -6.37,-24.46 1.02,-33.63 7.39,-9.17 21.15,-10.7 22.42,-9.68 1.27,1.02 5.35,8.66 10.96,14.52 5.6,5.86 10.7,2.8 16.56,0.26 5.86,-2.55 2.8,-8.92 2.8,-14.78 0,-5.86 11.46,-12.74 18.6,-12.49 7.13,0.26 17.07,4.08 17.32,14.02 0.26,9.94 2.3,21.66 3.82,40.26 1.53,18.6 -0.51,23.19 1.53,43.31 2.04,20.13 13.25,17.83 27.01,14.27 13.76,-3.57 3.57,-4.59 35.67,-20.89 32.1,-16.31 37.2,14.01 23.95,28.54 -13.25,14.52 -32.3,31.75 -51.79,47.14 -19.49,15.39 -8.2,24.61 -9.23,41.03 -1.02,16.41 -14.41,103.45 -34.95,206.19 -20.55,102.74 -103.52,209.22 -131.21,247.18 -27.7,37.95 -5.13,60.52 -5.13,60.52 0,0 48.21,104.62 106.67,241.04 58.46,136.42 101.03,361.05 107.7,398.48 6.67,37.44 -19.49,29.23 -25.13,31.28 -5.64,2.05 -197.71,11.05 -215.04,12.32 -17.33,1.28 -17.29,14.35 -17.29,14.35 0,0 -12.31,51.29 -24.62,116.93 -12.31,65.65 -35.9,110.78 -47.18,133.34 -11.28,22.57 -2.57,16.41 4.1,53.85 6.67,37.44 27.69,54.87 32.82,56.93 5.13,2.05 53.33,13.33 58.46,30.77 1.58,5.39 2,11.36 1.81,17.26 109.16,-13.26 225.07,-23.24 326.61,-23.24 106.52,0 229.03,8.97 346.01,21.48 -0.06,-5.33 0.42,-10.65 1.85,-15.51 5.13,-17.44 53.34,-28.72 58.46,-30.77 5.13,-2.06 26.16,-19.49 32.82,-56.93 6.67,-37.44 15.39,-31.28 4.1,-53.85 -11.28,-22.56 -34.87,-67.7 -47.18,-133.34 -4.61,-24.56 -9.22,-47.11 -13.17,-65.72 l -0.04,-0.21 -0.08,-0.35 c -2.61,-12.26 -4.95,-22.79 -6.8,-31.02 l -78.7,42.93 c 0,0 -26.67,7.18 -28.72,-16.92 -1.72,-20.27 -12.11,-103.76 -15.36,-129.79 l -0.03,-0.26 -0.04,-0.32 -0.13,-1.04 c -3.39,-26.85 -5.8,-49.96 -5.46,-59.36 1.03,-28.72 -15.9,-31.28 -15.9,-31.28 0,0 -6.15,3.59 -36.41,3.59 -30.26,0 -19.49,-19.48 -19.49,-19.48 l 29.71,-222.93 c 5.27,-14.38 10.69,-28.19 16.27,-41.19 58.46,-136.42 106.67,-241.04 106.67,-241.04 0,0 22.57,-22.57 -5.13,-60.52 -27.7,-37.95 -110.67,-144.44 -131.21,-247.18 -20.54,-102.73 -33.93,-189.78 -34.95,-206.19 -1.03,-16.41 10.26,-25.64 -9.23,-41.03 -19.49,-15.39 -38.54,-32.61 -51.79,-47.14 -13.25,-14.52 -8.15,-44.84 23.95,-28.54 32.11,16.3 21.91,17.32 35.67,20.89 13.76,3.57 24.97,5.86 27.01,-14.27 2.04,-20.13 0,-24.71 1.53,-43.31 1.53,-18.6 3.57,-30.32 3.82,-40.26 0.25,-9.94 10.19,-13.76 17.33,-14.02 7.13,-0.25 18.6,6.63 18.6,12.49 0,5.86 -3.06,12.23 2.8,14.78 5.86,2.55 10.96,5.61 16.56,-0.26 5.61,-5.86 9.69,-13.5 10.96,-14.52 1.28,-1.02 15.04,0.51 22.42,9.68 7.39,9.17 5.86,22.17 1.02,33.63 -4.84,11.46 -5.6,13.76 -5.6,16.05 0,2.29 3.31,9.17 7.13,9.94 3.82,0.76 18.34,1.02 18.6,3.06 0.26,2.04 5.9,34.09 -12.56,56.15 -18.46,22.06 -41.03,38.98 -41.03,38.98 z"
         id="path63"
         style="fill:url(#lgrad-9)" />
      <polygon
         style="fill:#e2c164"
         points="5846.5,2624.27 5667.55,2754.81 5736.4,2544.28 5556.94,2414.42 5778.45,2414.85 5846.5,2204.05 5914.54,2414.85 6136.05,2414.42 5956.6,2544.28 6025.45,2754.81 "
         id="polygon65" />
    </g>
    <ellipse
       style="clip-rule:evenodd;fill:#236fb4;fill-opacity:1;fill-rule:evenodd;stroke:none;stroke-width:0.371213;stroke-miterlimit:22.9256;stroke-dasharray:none;stroke-opacity:1;image-rendering:optimizeQuality;shape-rendering:geometricPrecision;text-rendering:geometricPrecision"
       id="path991"
       cx="43.317211"
       cy="79.065781"
       rx="3.1216848"
       ry="3.1216855" />
    <ellipse
       style="clip-rule:evenodd;fill:#d342a1;fill-opacity:1;fill-rule:evenodd;stroke:none;stroke-width:0.371213;stroke-miterlimit:22.9256;stroke-dasharray:none;stroke-opacity:1;image-rendering:optimizeQuality;shape-rendering:geometricPrecision;text-rendering:geometricPrecision"
       id="path991-7"
       cx="166.86803"
       cy="79.036316"
       rx="3.1216848"
       ry="3.1216855" />

    <text
       xml:space="preserve"
       style="font-style:normal;font-weight:bold;font-size:15px;line-height:1.25;font-family:bauhausLightCTT, sans-serif;fill:#d342a1;fill-opacity:1;stroke:#d342a1;stroke-width:0.264583"
       id="text1249"><textPath
         xlink:href="#path1051"
         id="textPath1812"><tspan
           id="tspan1247">     Мир детсва</tspan></textPath></text>

    <text
       xml:space="preserve"
       style="font-style:normal;font-weight:bold;font-size:20px;line-height:1.25;font-family:bauhausLightCTT, sans-serif;fill:#3375b8;fill-opacity:1;stroke:#3375b8;stroke-width:0.264583"
       id="text1874"
       y="22.947578"
       x="0.5291667">        <textPath
   xlink:href="#path1051-4"
   id="textPath1876"><tspan
   id="tspan1872">Баларар    лемi</tspan>         </textPath>       </text>
    <path
       id="text1881"
       style="font-style:normal;font-weight:normal;font-size:16.7063px;line-height:1.35;font-family:sans-serif;fill:#3275b8;fill-opacity:1;stroke:none;stroke-width:0.313243"
       d="m 128.07713,111.59801 c -0.84898,0 -1.63478,0.13962 -2.35696,0.41858 -0.71668,0.27896 -1.31734,0.68143 -1.80248,1.20716 -0.50718,0.55256 -0.89345,1.21788 -1.15806,1.99575 -0.0572,0.16688 -0.10748,0.33917 -0.15193,0.51573 h 1.73943 c 0.17766,-0.58132 0.43879,-1.07863 0.78599,-1.48983 0.71668,-0.84762 1.70086,-1.27124 2.95228,-1.27124 1.24039,0 2.21907,0.42362 2.93574,1.27124 0.44792,0.5264 0.75548,1.19217 0.92345,1.99729 v 5.2e-4 l 0.14935,1.67587 c -0.012,1.53349 -0.3738,2.71383 -1.08934,3.53673 -0.72218,0.83152 -1.69534,1.24695 -2.9192,1.24695 -1.22386,0 -2.19977,-0.41543 -2.92747,-1.24695 -0.33627,-0.38673 -0.59117,-0.85573 -0.77205,-1.3994 l 7.07709,-1.96215 -0.12454,-1.6831 -3.56206,0.98805 0.006,0.0181 -3.04219,0.82372 -0.65629,0.1819 c -8e-5,-10e-4 9e-5,-0.003 0,-0.004 l -1.66915,0.45165 c 0.0609,0.5846 0.1753,1.12505 0.34468,1.61955 0.27013,0.77249 0.65364,1.42433 1.1498,1.95543 0.49616,0.5311 1.09683,0.93595 1.80248,1.21491 0.71116,0.27896 1.49971,0.41858 2.36523,0.41858 0.88757,0 1.6756,-0.13671 2.36471,-0.41031 0.69463,-0.27359 1.29581,-0.68135 1.80299,-1.22318 0.49065,-0.52037 0.87089,-1.1693 1.14102,-1.94717 0.27565,-0.78324 0.41341,-1.66855 0.41341,-2.65565 0,-0.98709 -0.13501,-1.86951 -0.40514,-2.64738 -0.26462,-0.77787 -0.64761,-1.43499 -1.14929,-1.97146 -0.49064,-0.52036 -1.08907,-0.91992 -1.79472,-1.19889 -0.70014,-0.28432 -1.49092,-0.42685 -2.37298,-0.42685 z" />
  </g>
</svg>
